<?xml version="1.0" encoding="utf-8"?>
<!-- Generator: Adobe Illustrator 16.0.0, SVG Export Plug-In . SVG Version: 6.00 Build 0)  -->
<!DOCTYPE svg PUBLIC "-//W3C//DTD SVG 1.1//EN" "http://www.w3.org/Graphics/SVG/1.1/DTD/svg11.dtd">
<svg version="1.1" id="Layer_1" xmlns="http://www.w3.org/2000/svg" xmlns:xlink="http://www.w3.org/1999/xlink" x="0px" y="0px"
	 width="163px" height="163px" viewBox="0 0 163 163" enable-background="new 0 0 163 163" xml:space="preserve">
<g>
	
		<linearGradient id="SVGID_1_" gradientUnits="userSpaceOnUse" x1="-18886.2617" y1="307.9531" x2="-17247.8613" y2="307.9531" gradientTransform="matrix(0 -0.0101 -0.047 0 96.9729 -168.9496)">
		<stop  offset="0.1333" style="stop-color:#FFFFFF"/>
		<stop  offset="1" style="stop-color:#FFFFFF;stop-opacity:0"/>
	</linearGradient>
	<path fill="url(#SVGID_1_)" d="M81.5,20.5v-15c0-0.267,0.1-0.5,0.3-0.7s0.434-0.3,0.7-0.3l0.7,0.3l0.3,0.7v13.3v1.4v0.3l-0.3-0.7
		l-0.7-0.3c-0.267,0-0.5,0.1-0.7,0.3S81.5,20.233,81.5,20.5"/>
	<path fill="#FFFFFF" d="M81.5,20.5c0-0.267,0.1-0.5,0.3-0.7s0.434-0.3,0.7-0.3l0.7,0.3l0.3,0.7v5.8v1.4v6.1v1.4v6.1v1.4v6.1v1.4
		v6.1v1.4v6.1v1.4v6.1v1.4v6.1v0.7h0.7h6.1h1.4h6.1h1.4h6.1h1.4h6.1h1.4h6.1h1.4h6.1h1.4h6.1h1.4h5.85l0.65,0.3l0.3,0.7l-0.3,0.7
		l-0.65,0.3H82.5c-0.267,0-0.5-0.1-0.7-0.3s-0.3-0.434-0.3-0.7V20.5"/>
	
		<linearGradient id="SVGID_2_" gradientUnits="userSpaceOnUse" x1="4141.9248" y1="-2877.0781" x2="5780.3247" y2="-2877.0781" gradientTransform="matrix(0.0122 0 0 -0.0546 31.939 -143.3146)">
		<stop  offset="0.098" style="stop-color:#FFFFFF"/>
		<stop  offset="1" style="stop-color:#FFFFFF;stop-opacity:0"/>
	</linearGradient>
	<path fill="url(#SVGID_2_)" d="M83.5,20.2v-1.4L102.15,0.15L102.5,0l0.35,0.15L103,0.5l-0.15,0.35L83.5,20.2 M83.5,27.7v-1.4
		L102.15,7.65l0.35-0.15l0.35,0.15L103,8l-0.15,0.35L83.5,27.7"/>
	
		<linearGradient id="SVGID_3_" gradientUnits="userSpaceOnUse" x1="4141.9248" y1="-3288.9609" x2="5780.3247" y2="-3288.9609" gradientTransform="matrix(0.0122 0 0 -0.0546 31.939 -135.8146)">
		<stop  offset="0.098" style="stop-color:#FFFFFF"/>
		<stop  offset="1" style="stop-color:#FFFFFF;stop-opacity:0"/>
	</linearGradient>
	<path fill="url(#SVGID_3_)" d="M83.5,35.2v-1.4l18.65-18.649L102.5,15l0.35,0.15L103,15.5l-0.15,0.35L83.5,35.2 M83.5,41.3
		l18.65-18.649l0.35-0.15l0.35,0.15L103,23l-0.15,0.35L83.5,42.7V41.3 M83.5,48.8l18.65-18.649L102.5,30l0.35,0.15L103,30.5
		l-0.15,0.35L83.5,50.2V48.8 M83.5,56.3l18.65-18.649l0.35-0.15l0.35,0.15L103,38l-0.15,0.35L83.5,57.7V56.3 M83.5,63.8
		l18.65-18.649L102.5,45l0.35,0.15L103,45.5l-0.15,0.35L83.5,65.2V63.8 M83.5,71.3l18.65-18.649l0.35-0.15l0.35,0.15L103,53
		l-0.15,0.35L83.5,72.7V71.3"/>
	
		<linearGradient id="SVGID_4_" gradientUnits="userSpaceOnUse" x1="-15723.6377" y1="1562.1641" x2="-14085.2373" y2="1562.1641" gradientTransform="matrix(0 -0.0122 0.0546 0 63.8146 -111.439)">
		<stop  offset="0.098" style="stop-color:#FFFFFF"/>
		<stop  offset="1" style="stop-color:#FFFFFF;stop-opacity:0"/>
	</linearGradient>
	<path fill="url(#SVGID_4_)" d="M135.3,79.5l19.351-19.35L155,60l0.35,0.15l0.15,0.35l-0.15,0.35L136.7,79.5H135.3 M142.8,79.5
		l19.351-19.35L162.5,60l0.35,0.15L163,60.5l-0.15,0.35L144.2,79.5H142.8"/>
	
		<linearGradient id="SVGID_5_" gradientUnits="userSpaceOnUse" x1="-15723.6377" y1="1150.2734" x2="-14085.2373" y2="1150.2734" gradientTransform="matrix(0 -0.0122 0.0546 0 56.3146 -111.439)">
		<stop  offset="0.098" style="stop-color:#FFFFFF"/>
		<stop  offset="1" style="stop-color:#FFFFFF;stop-opacity:0"/>
	</linearGradient>
	<path fill="url(#SVGID_5_)" d="M90.3,79.5l19.351-19.35L110,60l0.35,0.15l0.15,0.35l-0.15,0.35L91.7,79.5H90.3 M97.8,79.5
		l19.351-19.35c0.1-0.101,0.217-0.15,0.35-0.15l0.35,0.15L118,60.5l-0.15,0.35L99.2,79.5H97.8 M112.8,79.5l19.351-19.35L132.5,60
		l0.35,0.15L133,60.5l-0.15,0.35L114.2,79.5H112.8 M120.3,79.5l19.351-19.35c0.1-0.101,0.217-0.15,0.35-0.15l0.35,0.15l0.15,0.35
		l-0.15,0.35L121.7,79.5H120.3 M127.8,79.5l19.351-19.35c0.1-0.101,0.216-0.15,0.35-0.15l0.35,0.15L148,60.5l-0.15,0.35L129.2,79.5
		H127.8"/>
	
		<linearGradient id="SVGID_6_" gradientUnits="userSpaceOnUse" x1="5193.3027" y1="-2277.3203" x2="6831.6382" y2="-2277.3203" gradientTransform="matrix(0.0101 0 0 -0.047 89.4994 -26.5271)">
		<stop  offset="0.1333" style="stop-color:#FFFFFF"/>
		<stop  offset="1" style="stop-color:#FFFFFF;stop-opacity:0"/>
	</linearGradient>
	<path fill="url(#SVGID_6_)" d="M142.55,79.5h0.25h1.4h13.3l0.7,0.3l0.3,0.7l-0.3,0.7l-0.7,0.3h-14.95l0.65-0.3l0.3-0.7l-0.3-0.7
		L142.55,79.5"/>
	
		<linearGradient id="SVGID_7_" gradientUnits="userSpaceOnUse" x1="-15723.6377" y1="1081.625" x2="-14085.2373" y2="1081.625" gradientTransform="matrix(0 -0.0122 0.0546 0 56.3146 -111.439)">
		<stop  offset="0" style="stop-color:#FFFFFF"/>
		<stop  offset="1" style="stop-color:#FFFFFF;stop-opacity:0"/>
	</linearGradient>
	<path fill="url(#SVGID_7_)" d="M105.3,79.5l19.351-19.35L125,60l0.35,0.15l0.15,0.35l-0.15,0.35L106.7,79.5H105.3"/>
	
		<linearGradient id="SVGID_8_" gradientUnits="userSpaceOnUse" x1="4141.9248" y1="4026.1719" x2="5780.3247" y2="4026.1719" gradientTransform="matrix(0.0122 0 0 0.0546 31.939 -150.1854)">
		<stop  offset="0.098" style="stop-color:#FFFFFF"/>
		<stop  offset="1" style="stop-color:#FFFFFF;stop-opacity:0"/>
	</linearGradient>
	<path fill="url(#SVGID_8_)" d="M83.5,78.8l18.65-18.649L102.5,60l0.35,0.15L103,60.5l-0.15,0.35L84.2,79.5h-0.7V78.8"/>
</g>
</svg>
