
<svg xmlns="http://www.w3.org/2000/svg" version="1.1" xmlns:xlink="http://www.w3.org/1999/xlink" preserveAspectRatio="none" x="0px" y="0px" width="300px" height="80px" viewBox="0 0 300 80">
<defs>
<g id="Layer0_0_FILL">
<path fill="#282F39" stroke="none" d="
M 63.95 61.9
Q 62.2 63 61.2 64.9 60.25 66.8 60.25 69.15 60.25 71.55 61.2 73.4 62.2 75.25 63.9 76.35 65.6 77.4 67.75 77.4 69.95 77.35 71.7 76.25 73.45 75.15 74.45 73.25 75.4 71.35 75.4 69 75.4 66.65 74.45 64.75 73.5 62.9 71.75 61.85 70 60.75 67.85 60.75 65.65 60.8 63.95 61.9
M 65.15 63.55
Q 66.35 62.7 67.9 62.7 69.35 62.7 70.55 63.5 71.7 64.3 72.35 65.75 73.05 67.2 73.05 69 73.05 70.85 72.35 72.3 71.65 73.8 70.45 74.65 69.25 75.45 67.75 75.45 66.25 75.45 65.1 74.65 63.9 73.85 63.25 72.4 62.6 70.95 62.6 69.15 62.6 67.3 63.25 65.85 63.95 64.35 65.15 63.55
M 39.5 61.15
L 39.5 77.05 41.75 77.05 41.75 70.7 45.3 70.6 48.85 77.05 51.3 77.05 47.3 70.05
Q 48.55 69.5 49.3 68.4 50.05 67.35 50.1 65.85 50.1 63.5 48.45 62.3 46.75 61.15 44.05 61.15
L 39.5 61.15
M 46.8 63.7
Q 47.75 64.35 47.75 65.95 47.7 67.5 46.7 68.15 45.65 68.85 43.9 68.85
L 41.75 68.85 41.75 63.05 44.05 63.05
Q 45.85 63.05 46.8 63.7
M 29 66.1
Q 29 63.55 27.35 62.35 25.7 61.15 22.95 61.15
L 18.4 61.15 18.4 77.05 20.65 77.05 20.65 71.2 22.75 71.2
Q 24.45 71.2 25.9 70.65 27.3 70.1 28.15 68.95 29 67.8 29 66.1
M 25.7 63.75
Q 26.65 64.45 26.65 66.2 26.55 67.8 25.55 68.55 24.55 69.35 22.8 69.35
L 20.65 69.35 20.65 63.05 22.95 63.05
Q 24.75 63.05 25.7 63.75
M 55.6 8
L 49.45 8 29.7 30.45 10 8 3.75 8 29.7 37.45 55.6 8
M 61.75 37.45
L 61.75 14.65 58.4 14.65 58.4 37.45 61.75 37.45
M 144.3 61.75
Q 143.5 61.3 142.3 61.05 141.1 60.8 140.25 60.8 138 60.8 136.25 61.9 134.55 63 133.6 64.9 132.7 66.8 132.7 69.2 132.7 71.5 133.55 73.35 134.4 75.2 136.05 76.3 137.75 77.4 140.1 77.4 141.1 77.4 142.35 77.1 143.6 76.85 144.35 76.45
L 143.5 74.75
Q 142 75.45 140 75.45 138.5 75.45 137.35 74.6 136.2 73.75 135.6 72.35 135.05 70.9 135.05 69.15 135.05 67.3 135.7 65.8 136.4 64.35 137.55 63.55 138.75 62.75 140.2 62.75 141.2 62.75 141.9 62.85
L 143.6 63.4 144.3 61.75
M 92 61.15
L 86.25 61.15 86.25 77.05 91.9 77.05
Q 94.15 77.05 95.8 76 97.4 75 98.25 73.15 99.1 71.35 99.1 69 99.1 65.45 97.3 63.3 95.5 61.15 92 61.15
M 95.65 64.65
Q 96.8 66.25 96.8 69.05 96.8 72 95.45 73.6 94.15 75.2 91.9 75.2
L 88.5 75.2 88.5 63.05 92.1 63.05
Q 94.45 63.05 95.65 64.65
M 111.9 61.15
L 109.65 61.15 109.65 71.35
Q 109.65 73.05 110.45 74.45 111.2 75.8 112.6 76.55 114 77.3 115.9 77.3 117.75 77.3 119.15 76.55 120.55 75.75 121.3 74.4 122.05 73.05 122.05 71.35
L 122.05 61.15 119.8 61.15 119.8 71.15
Q 119.8 73.1 118.75 74.3 117.7 75.45 115.9 75.45 114.1 75.45 113 74.3 111.9 73.15 111.9 71.15
L 111.9 61.15
M 108.75 27.7
L 108.75 24.4 73.25 24.4 73.25 17.95 108.75 17.95 108.75 14.65 69.9 14.65 69.9 37.45 108.75 37.45 108.75 34.2 73.25 34.2 73.25 27.7 108.75 27.7
M 211.1 61.15
L 208.85 61.15 208.85 77.05 218.55 77.05 218.3 75.3 211.1 75.3 211.1 61.15
M 230.9 61.15
L 228.65 61.15 228.65 77.05 230.9 77.05 230.9 61.15
M 165.75 62.9
L 165.45 61.15 152.85 61.15 152.85 62.9 158 62.9 158 77.05 160.3 77.05 160.3 62.9 165.75 62.9
M 183.3 63.6
L 184.05 61.8
Q 183.15 61.35 182.05 61.05 180.95 60.75 179.85 60.75 178.25 60.75 177.1 61.3 175.9 61.85 175.25 62.8 174.65 63.7 174.65 64.9 174.65 66.05 175.1 66.9 175.55 67.7 176.4 68.35 177.3 68.95 178.75 69.6
L 181.1 70.75
Q 181.95 71.2 182.4 71.8 182.85 72.35 182.85 73.1 182.85 74.15 181.95 74.8 181 75.4 179.35 75.4 178.4 75.4 177.3 75.1 176.2 74.8 175.45 74.4
L 174.9 76.2
Q 175.4 76.6 176.9 77 178.35 77.35 179.4 77.35 181.2 77.35 182.45 76.8 183.75 76.25 184.45 75.3 185.1 74.35 185.1 73.05 185.1 71.45 184.1 70.4 183.15 69.35 181 68.4
L 178.6 67.2
Q 177.75 66.75 177.3 66.2 176.9 65.6 176.9 64.85 176.9 63.85 177.75 63.3 178.6 62.75 180 62.75 181 62.75 181.75 62.95
L 183.3 63.6
M 180.05 14.7
L 175.2 14.7 159.9 32.05 147.45 14.65 143.5 14.65 131.1 32.05 115.75 14.7 110.95 14.7 131.1 37.45 145.45 17.45 159.9 37.45 180.05 14.7
M 215.7 37.45
L 221.9 37.45 196 8 170 37.45 176.3 37.45 183.6 29.15 208.45 29.15 215.7 37.45
M 187.35 24.9
L 196 15.1 204.6 24.9 187.35 24.9
M 248.2 74.05
L 243.25 60.95 241.05 61.3 247.15 77.05 249.2 77.05 255.2 61.15 253 61.15 248.2 74.05
M 274.6 62.85
L 274.3 61.15 265.35 61.15 265.35 77.05 275.45 77.05 275.15 75.3 267.6 75.3 267.6 69.8 273.3 69.8 273 68.1 267.6 68.1 267.6 62.85 274.6 62.85
M 276.1 12.3
Q 275.5 11.35 274.65 10.5 273.5 9.4 272.15 8.75 270.65 8.1 268.95 8
L 229.1 8 229.1 37.45 233.4 37.45 233.4 24.9 262.2 24.9 273.25 37.45 279.4 37.45 268.35 24.9 268.95 24.9
Q 272.25 24.8 274.65 22.4 275.5 21.55 276.1 20.55 277.15 18.75 277.15 16.4 277.15 16 277.05 15.65 276.95 13.85 276.1 12.3
M 272.85 16.4
Q 272.85 18.15 271.6 19.4 270.45 20.55 268.75 20.55
L 233.4 20.55 233.4 12.3 268.75 12.3
Q 270.45 12.4 271.6 13.6 271.95 13.95 272.15 14.25 272.6 14.9 272.7 15.65 272.85 16 272.85 16.4
M 286.65 4.05
L 286.65 2.65 279.65 2.65 279.65 4.05 282.25 4.05 282.25 11.25 284.05 11.25 284.05 4.05 286.65 4.05
M 294.6 4.45
L 294.6 11.25 296.25 11.25 296.25 2.65 293.6 2.65 292 8.55 290.45 2.65 287.8 2.65 287.8 11.25 289.4 11.25 289.4 4.45 291.2 11.25 292.85 11.25 294.6 4.45 Z"/>
</g>
</defs>

<g transform="matrix( 1, 0, 0, 1, 0,0) ">
<use xlink:href="#Layer0_0_FILL"/>
</g>
</svg>
