<svg xmlns="http://www.w3.org/2000/svg" width="16.995" height="12.245" viewBox="0 0 16.995 12.245"><defs><style>.a{fill:#262f3a;}</style></defs><path class="a" d="M181.105,240.832v1.682l1.283-.841Zm0,0" transform="translate(-174.05 -231.453)"/><path class="a" d="M.523,2.564c0,.535.886,1.114,2.369,1.547.415.121.865.228,1.344.321L4.242.7C2,1.128.523,1.866.523,2.564Zm0,0" transform="translate(-0.503 -0.672)"/><path class="a" d="M337.68.105l0,3.782c.524-.1,1.015-.213,1.465-.344,1.484-.433,2.369-1.012,2.369-1.547,0-.6-1.19-1.4-3.839-1.891Zm0,0" transform="translate(-324.524 -0.105)"/><path class="a" d="M8.508,76.586a23.345,23.345,0,0,1-6.271-.76A5.991,5.991,0,0,1,.018,74.773L0,81.825c0,.534.887,1.113,2.373,1.546a22.833,22.833,0,0,0,6.121.738,22.728,22.728,0,0,0,6.111-.738c1.479-.433,2.363-1.011,2.363-1.547l.024-7.046a6.015,6.015,0,0,1-2.213,1.048A23.351,23.351,0,0,1,8.508,76.586Zm7.311,3.237c0,.452-.3,1.112-1.714,1.688a13.793,13.793,0,0,1-3.956.82h-.021a.273.273,0,0,1-.021-.545,13.248,13.248,0,0,0,3.793-.782c.873-.356,1.374-.787,1.374-1.183,0-.472-.7-.983-1.876-1.366a16.457,16.457,0,0,0-4.9-.66,16.459,16.459,0,0,0-4.9.66c-1.175.383-1.876.894-1.876,1.366,0,.391.49.818,1.344,1.171a12.54,12.54,0,0,0,3.445.761V80.738a.273.273,0,0,1,.423-.228l2.053,1.346a.273.273,0,0,1,0,.456L6.933,83.659a.273.273,0,0,1-.423-.228V82.3a13.134,13.134,0,0,1-3.653-.8c-1.39-.574-1.681-1.228-1.681-1.675,0-.525.391-1.277,2.253-1.885A17.007,17.007,0,0,1,8.5,77.252a17.009,17.009,0,0,1,5.069.687C15.428,78.546,15.819,79.3,15.819,79.824Zm0,0" transform="translate(0 -71.864)"/></svg>
