<svg xmlns="http://www.w3.org/2000/svg" width="18.186" height="15" viewBox="0 0 18.186 15"><defs><style>.a{fill:#807f7f;}</style></defs><g transform="translate(-22 -62.993)"><path class="a" d="M42.96,70.829a.233.233,0,0,0,.233-.233V64.71a1.251,1.251,0,0,1,2.488-.181h-.52a.614.614,0,1,0,0,1.228h1.746a.614.614,0,0,0,0-1.228h-.756a1.717,1.717,0,0,0-3.424.181V70.6A.233.233,0,0,0,42.96,70.829Z" transform="translate(-19.922 0)"/><path class="a" d="M121.845,146.4v1.166a.233.233,0,1,0,.466,0V146.4a.233.233,0,0,0-.466,0Z" transform="translate(-95.965 -79.938)"/><path class="a" d="M154.114,146.4v1.166a.233.233,0,1,0,.466,0V146.4a.233.233,0,0,0-.466,0Z" transform="translate(-126.98 -79.938)"/><path class="a" d="M89.577,146.4v1.166a.233.233,0,1,0,.466,0V146.4a.233.233,0,0,0-.466,0Z" transform="translate(-64.951 -79.938)"/><path class="a" d="M22,264.716H40.186v.911H22Z" transform="translate(0 -193.884)"/><path class="a" d="M75.624,300.17H60.194a5.031,5.031,0,0,0,5.044,5.006H70.58A5.031,5.031,0,0,0,75.624,300.17Z" transform="translate(-36.71 -227.96)"/><path class="a" d="M134.254,441H132v.311h9.637V441h-7.383Z" transform="translate(-105.725 -363.318)"/></g></svg>