<svg xmlns="http://www.w3.org/2000/svg" width="22.207" height="22.207" viewBox="0 0 22.207 22.207"><defs><style>.a{fill:#fff;}.b{fill:none;}</style></defs><circle class="a" cx="2.961" cy="2.961" r="2.961" transform="translate(8.143 8.143)"/><path class="a" d="M8.477,2,6.784,3.851H3.851A1.856,1.856,0,0,0,2,5.7V16.8a1.856,1.856,0,0,0,1.851,1.851h14.8A1.856,1.856,0,0,0,20.506,16.8V5.7a1.856,1.856,0,0,0-1.851-1.851H15.722L14.029,2Zm2.776,13.879a4.626,4.626,0,1,1,4.626-4.626A4.628,4.628,0,0,1,11.253,15.879Z" transform="translate(-0.149 -0.149)"/><path class="b" d="M0,0H22.207V22.207H0Z"/></svg>