<svg xmlns="http://www.w3.org/2000/svg" width="20" height="20" viewBox="0 0 20 20"><defs><style>.a{fill:#59606c;}</style></defs><path class="a" d="M17,22V20h3V17h2v3.5A1.577,1.577,0,0,1,20.5,22H17M7,22H3.5a1.445,1.445,0,0,1-1.04-.46A1.445,1.445,0,0,1,2,20.5V17H4v3H7v2M17,2h3.5a1.445,1.445,0,0,1,1.04.46A1.445,1.445,0,0,1,22,3.5V7H20V4H17V2M7,2V4H4V7H2V3.5a1.445,1.445,0,0,1,.46-1.04A1.445,1.445,0,0,1,3.5,2H7m6,15.25,4-2.3V10.36l-4,2.3v4.59m-1-6.33,4-2.29L12,6.28,8,8.63l4,2.29M7,14.95l4,2.3V12.66l-4-2.3v4.59M18.23,7.59A1.5,1.5,0,0,1,19,8.91v6.32a1.5,1.5,0,0,1-.77,1.32l-5.48,3.18a1.292,1.292,0,0,1-1.5,0L5.77,16.55A1.5,1.5,0,0,1,5,15.23V8.91a1.5,1.5,0,0,1,.77-1.32l5.48-3.18a1.575,1.575,0,0,1,1.5,0Z" transform="translate(-2 -2)"/></svg>