<?xml version="1.0" encoding="utf-8"?>
<!-- Generator: Adobe Illustrator 16.0.0, SVG Export Plug-In . SVG Version: 6.00 Build 0)  -->
<!DOCTYPE svg PUBLIC "-//W3C//DTD SVG 1.1//EN" "http://www.w3.org/Graphics/SVG/1.1/DTD/svg11.dtd">
<svg version="1.1" id="Layer_1" xmlns="http://www.w3.org/2000/svg" xmlns:xlink="http://www.w3.org/1999/xlink" x="0px" y="0px"
	 width="163px" height="163px" viewBox="0 0 163 163" enable-background="new 0 0 163 163" xml:space="preserve">
<g>
	<path fill="#FFFFFF" d="M83.5,20.5v5.8v1.4v6.1v1.4v6.1v1.401v6.1v1.4v6.1v1.4v6.1v1.4v6.1v1.4v6.1V79.5v1l-0.301,0.701
		l-0.65,0.299H82.5c-0.268,0-0.5-0.1-0.701-0.299C81.6,81,81.5,80.768,81.5,80.5v-60c0-0.267,0.1-0.5,0.299-0.7
		c0.201-0.2,0.434-0.3,0.701-0.3l0.699,0.3L83.5,20.5"/>
	
		<linearGradient id="SVGID_1_" gradientUnits="userSpaceOnUse" x1="12743.5508" y1="-2877.0859" x2="14381.9512" y2="-2877.0859" gradientTransform="matrix(0.0122 0 0 -0.0546 -73.061 -143.3146)">
		<stop  offset="0.098" style="stop-color:#FFFFFF"/>
		<stop  offset="1" style="stop-color:#FFFFFF;stop-opacity:0"/>
	</linearGradient>
	<path fill="url(#SVGID_1_)" d="M83.5,18.8l18.65-18.649L102.5,0l0.35,0.15L103,0.5l-0.15,0.35L83.5,20.201V18.8 M83.5,26.3
		l18.65-18.649l0.35-0.15l0.35,0.15L103,8l-0.15,0.35L83.5,27.701V26.3"/>
	
		<linearGradient id="SVGID_2_" gradientUnits="userSpaceOnUse" x1="12743.5508" y1="-3288.9844" x2="14381.9512" y2="-3288.9844" gradientTransform="matrix(0.0122 0 0 -0.0546 -73.061 -135.8146)">
		<stop  offset="0.098" style="stop-color:#FFFFFF"/>
		<stop  offset="1" style="stop-color:#FFFFFF;stop-opacity:0"/>
	</linearGradient>
	<path fill="url(#SVGID_2_)" d="M83.5,33.8l18.65-18.649L102.5,15l0.35,0.15L103,15.5l-0.15,0.35L83.5,35.201V33.8 M83.5,41.3
		l18.65-18.649l0.35-0.15l0.35,0.15L103,23l-0.15,0.35L83.5,42.701V41.3 M83.5,48.801l18.65-18.65L102.5,30l0.35,0.15L103,30.5
		l-0.15,0.35L83.5,50.201V48.801 M83.5,56.301l18.65-18.65l0.35-0.15l0.35,0.15L103,38l-0.15,0.35L83.5,57.701V56.301 M83.5,63.801
		l18.65-18.65L102.5,45l0.35,0.15L103,45.5l-0.15,0.35L83.5,65.201V63.801 M83.5,71.301l18.65-18.65l0.35-0.15l0.35,0.15L103,53
		l-0.15,0.35L83.5,72.701V71.301"/>
	
		<linearGradient id="SVGID_3_" gradientUnits="userSpaceOnUse" x1="-18886.3242" y1="-1926.2344" x2="-17247.9238" y2="-1926.2344" gradientTransform="matrix(0 -0.0101 -0.047 0 -8.0271 -168.9496)">
		<stop  offset="0.1333" style="stop-color:#FFFFFF"/>
		<stop  offset="1" style="stop-color:#FFFFFF;stop-opacity:0"/>
	</linearGradient>
	<path fill="url(#SVGID_3_)" d="M83.5,18.8v1.4v0.3l-0.301-0.7L82.5,19.5c-0.268,0-0.5,0.1-0.701,0.3C81.6,20,81.5,20.234,81.5,20.5
		v-15c0-0.267,0.1-0.5,0.299-0.7C82,4.6,82.232,4.5,82.5,4.5l0.699,0.3L83.5,5.5V18.8"/>
	
		<linearGradient id="SVGID_4_" gradientUnits="userSpaceOnUse" x1="12743.5508" y1="4026.1719" x2="14381.9512" y2="4026.1719" gradientTransform="matrix(0.0122 0 0 0.0546 -73.061 -150.1854)">
		<stop  offset="0.098" style="stop-color:#FFFFFF"/>
		<stop  offset="1" style="stop-color:#FFFFFF;stop-opacity:0"/>
	</linearGradient>
	<path fill="url(#SVGID_4_)" d="M83.5,78.801l18.65-18.65L102.5,60l0.35,0.15L103,60.5l-0.15,0.35L84.199,79.5H83.5V78.801"/>
	
		<linearGradient id="SVGID_5_" gradientUnits="userSpaceOnUse" x1="15619.3594" y1="-2277.3203" x2="17257.8242" y2="-2277.3203" gradientTransform="matrix(0.0101 0 0 -0.047 -75.5006 -26.5271)">
		<stop  offset="0.1333" style="stop-color:#FFFFFF"/>
		<stop  offset="1" style="stop-color:#FFFFFF;stop-opacity:0"/>
	</linearGradient>
	<path fill="url(#SVGID_5_)" d="M84.199,79.5H97.5c0.266,0,0.5,0.1,0.699,0.301L98.5,80.5l-0.301,0.701L97.5,81.5H82.549l0.65-0.299
		L83.5,80.5v-1H84.199"/>
</g>
</svg>
