<svg xmlns="http://www.w3.org/2000/svg" width="20.426" height="22.539" viewBox="0 0 20.426 22.539"><defs><style>.a{fill:#fff;}</style></defs><path class="a" d="M3,16.728a.352.352,0,0,0,.182.308L13.042,22.5a.352.352,0,0,0,.341,0l9.861-5.459a.352.352,0,0,0,0-.616L18.87,14l4.374-2.421a.352.352,0,0,0,0-.616L18.87,8.54l4.374-2.421a.352.352,0,0,0,0-.616L13.383.044a.354.354,0,0,0-.341,0L3.181,5.5a.352.352,0,0,0,0,.616L7.555,8.54,3.182,10.962a.352.352,0,0,0,0,.616L7.556,14,3.182,16.42A.352.352,0,0,0,3,16.728Zm9.486,0-4.2,2.326-1.737-.961,4.2-2.326Zm.727,5.056-1.74-.964,9.135-5.055,1.74.963Zm6.667-6.422-9.135,5.056-1.737-.961,4.376-2.42,4.76-2.635ZM8.281,3.485l1.738.962-1.737.961L6.544,4.446Zm2.464-1.365,1.739.962-1.737.961L9.008,3.082Zm6.671.961-1.74.963-1.738-.961,1.74-.963Zm2.464,1.364-1.74.963L16.4,4.447l1.74-.963Zm-4.2,2.327-1.737-.961,1.738-.961,1.737.961Zm2.464-.558,1.74.963-1.737.961L16.4,7.175Zm-3.191.961-1.737.961-1.738-.961,1.738-.961Zm0-2.728-1.737.961-1.738-.961,1.738-.961Zm-4.2.4,1.737.961-1.737.961L9.009,5.811Zm-.728,2.325L8.28,8.137,6.544,7.176l1.738-.962Zm.727.4,1.738.961L10.745,9.5,9.008,8.539Zm2.465,1.364,1.74.963-1.738.962L11.472,9.9Zm2.468.56-1.74-.963,1.738-.961,1.74.963Zm4.928-2.728-1.74-.963,1.74-.963,1.74.963ZM13.213.755l1.738.962-1.74.963-1.739-.962Zm-7.4,4.094,1.738.962-1.738.962L4.079,5.811ZM8.283,8.943l4.76,2.635a.352.352,0,0,0,.341,0l4.76-2.635,4.2,2.327-9.134,5.056L4.079,11.27Zm0,5.459,1.738.962-4.2,2.326-1.738-.962Z" transform="translate(-3 0)"/></svg>