<svg xmlns="http://www.w3.org/2000/svg" width="15" height="15" viewBox="0 0 15 15"><defs><style>.a{fill:#807f7f;}</style></defs><path class="a" d="M13.384,0H1.616A1.618,1.618,0,0,0,0,1.616V3.766H15V1.616A1.618,1.618,0,0,0,13.384,0ZM3.574,2.193A.439.439,0,1,1,3.7,1.883.442.442,0,0,1,3.574,2.193Zm2.824,0a.44.44,0,1,1,.129-.311A.442.442,0,0,1,6.4,2.193Zm2.824,0a.439.439,0,1,1,.129-.311A.442.442,0,0,1,9.223,2.193Zm2.824,0a.44.44,0,1,1,.129-.311A.442.442,0,0,1,12.047,2.193Zm0,0"/><path class="a" d="M103.742,237.8H94.266v5.711h9.477Zm-1.443,1.883h-6.59a.439.439,0,1,1,0-.879h6.59a.439.439,0,0,1,0,.879Zm0,0" transform="translate(-91.504 -230.834)"/><path class="a" d="M0,167.271a1.618,1.618,0,0,0,1.616,1.616H13.384A1.618,1.618,0,0,0,15,167.271v-8.739H0Zm1.883-6.856a.439.439,0,0,1,.439-.439H12.678a.439.439,0,0,1,.439.439V167a.439.439,0,0,1-.439.439H2.322A.439.439,0,0,1,1.883,167Zm0,0" transform="translate(0 -153.887)"/></svg>