<svg xmlns="http://www.w3.org/2000/svg" width="15.708" height="15.707" viewBox="0 0 15.708 15.707"><defs><style>.a{fill:#807f7f;}</style></defs><g transform="translate(0)"><path class="a" d="M199.961,416.729a7.241,7.241,0,0,0,1.412,1.848.46.46,0,0,0,.614,0,7.243,7.243,0,0,0,1.412-1.848,7.415,7.415,0,0,1-1.719-.986A7.415,7.415,0,0,1,199.961,416.729Zm0,0" transform="translate(-193.826 -402.987)"/><path class="a" d="M291.581,317.992c-.086.1-.174.191-.264.282a7.577,7.577,0,0,1-3.567,1.922,11.212,11.212,0,0,1-2.039.314,5.114,5.114,0,0,0,2.785.943,6.178,6.178,0,0,0,4.04-2,.46.46,0,0,0,0-.614A6.917,6.917,0,0,0,291.581,317.992Zm0,0" transform="translate(-276.945 -308.236)"/><path class="a" d="M4.927,320.2a7.576,7.576,0,0,1-3.567-1.922q-.136-.136-.264-.282a6.929,6.929,0,0,0-.954.846.46.46,0,0,0,0,.614,6.178,6.178,0,0,0,4.039,2,5.114,5.114,0,0,0,2.785-.943A11.218,11.218,0,0,1,4.927,320.2Zm0,0" transform="translate(-0.024 -308.236)"/><path class="a" d="M158.625,11.252a.46.46,0,0,0,.614,0c.113-.1,2.765-2.511,2.765-5.567S159.352.218,159.239.117a.46.46,0,0,0-.614,0c-.113.1-2.765,2.511-2.765,5.567S158.512,11.151,158.625,11.252Zm0,0" transform="translate(-151.078 0)"/><path class="a" d="M342.47,27.491a9.113,9.113,0,0,0-.479-1.31.46.46,0,0,0-.567-.235,9.143,9.143,0,0,0-1.264.588,9.636,9.636,0,0,1,.771,1.407A9.683,9.683,0,0,1,342.47,27.491Zm0,0" transform="translate(-329.724 -25.125)"/><path class="a" d="M98.864,26.533a9.126,9.126,0,0,0-1.264-.588.46.46,0,0,0-.567.235,9.142,9.142,0,0,0-.479,1.31,9.673,9.673,0,0,1,1.539.45A9.649,9.649,0,0,1,98.864,26.533Zm0,0" transform="translate(-93.592 -25.124)"/><path class="a" d="M309.2,102.2a6.94,6.94,0,0,1-.477,2.473,9.463,9.463,0,0,1-1.023,1.936,11.413,11.413,0,0,1-.936,1.2,7.453,7.453,0,0,0,4.309-1.9c2.161-2.161,1.99-5.741,1.981-5.892a.46.46,0,0,0-.434-.434c-.021,0-.122-.006-.287-.006a9.935,9.935,0,0,0-3.45.622A6.76,6.76,0,0,1,309.2,102.2Zm0,0" transform="translate(-297.358 -96.515)"/><path class="a" d="M6.3,107.8a11.43,11.43,0,0,1-.936-1.2,9.464,9.464,0,0,1-1.023-1.936,6.942,6.942,0,0,1-.477-2.473,6.756,6.756,0,0,1,.316-2.007,9.935,9.935,0,0,0-3.45-.622c-.165,0-.266.005-.287.006a.46.46,0,0,0-.434.434c-.008.151-.18,3.731,1.981,5.892A7.454,7.454,0,0,0,6.3,107.8Zm0,0" transform="translate(0 -96.515)"/></g></svg>