<svg xmlns="http://www.w3.org/2000/svg" width="21.306" height="17.325" viewBox="0 0 21.306 17.325"><defs><style>.a{opacity:0.995;}.b{fill:#fff;}</style></defs><g class="a"><path class="b" d="M21.306,2.9a2.9,2.9,0,1,0-5.8,0V4.532H.846A.847.847,0,0,0,0,5.379l.056,11.4a.847.847,0,0,0,.79.548H18.407a2.9,2.9,0,0,0,2.9-2.9Zm-5.8,7.9-3.2,1.711a.423.423,0,0,0,.4.746l2.8-1.5v1.745l-5.55,2.974H6.7l3.051-1.635a.423.423,0,0,0-.4-.746L4.912,16.479H1.669L15.508,9.063ZM7.441,5.379h3.2l3.473,3.473L12.03,9.967ZM4.615,8.618.846,10.61V8.915l2.66-1.406ZM.846,11.567l4.4-2.323,1.1,1.1-5.492,2.9Zm6.118-.6L8.08,12.084.846,15.96V14.2ZM15.508,8.1l-.618.331L11.834,5.379h3.674Zm-4.258,2.281L8.86,11.666,2.572,5.379H6.245ZM.846,5.379h.529l1.5,1.5L.846,7.958Zm10.9,11.1,3.76-2.015a2.89,2.89,0,0,0,.853,2.015Zm6.657,0a2.053,2.053,0,1,1,2.053-2.053A2.055,2.055,0,0,1,18.407,16.479Zm0-4.952a2.89,2.89,0,0,0-2.053.854V10.716a2.053,2.053,0,0,1,4.106,0v1.666A2.89,2.89,0,0,0,18.407,11.527Zm2-2.9a2.924,2.924,0,0,0-4.056.047V6.816a2.053,2.053,0,1,1,4.105,0V8.671Zm0-3.9a2.924,2.924,0,0,0-4.057.047V2.9a2.053,2.053,0,0,1,4.106,0V4.771l-.049-.047Zm0,0"/><path class="b" d="M410.533,313.492a1.381,1.381,0,1,0,1.381,1.381A1.383,1.383,0,0,0,410.533,313.492Zm0,1.916a.535.535,0,1,1,.535-.535A.535.535,0,0,1,410.533,315.408Zm0,0" transform="translate(-392.126 -300.447)"/><path class="b" d="M255.161,317.758a.423.423,0,1,0,.422.442A.428.428,0,0,0,255.161,317.758Zm0,0" transform="translate(-244.138 -304.535)"/></g></svg>