<?xml version="1.0" encoding="utf-8"?>
<!-- Generator: Adobe Illustrator 16.0.0, SVG Export Plug-In . SVG Version: 6.00 Build 0)  -->
<!DOCTYPE svg PUBLIC "-//W3C//DTD SVG 1.1//EN" "http://www.w3.org/Graphics/SVG/1.1/DTD/svg11.dtd">
<svg version="1.1" id="Layer_1" xmlns="http://www.w3.org/2000/svg" xmlns:xlink="http://www.w3.org/1999/xlink" x="0px" y="0px"
	 width="250px" height="250px" viewBox="0 0 250 250" enable-background="new 0 0 250 250" xml:space="preserve">
<path fill="#FFFFFF" fill-opacity="0.251" d="M232.146,125.445c0-11.73-1.646-22.784-4.942-33.163
	c-5.008-15.65-13.772-29.736-26.292-42.256c-20.856-20.824-45.995-31.235-75.418-31.235H125
	c-29.258,0.132-54.232,10.543-74.924,31.235C29.253,70.85,18.841,95.99,18.841,125.445c0,11.663,1.631,22.65,4.894,32.964
	c4.975,15.716,13.755,29.852,26.341,42.404c20.692,20.725,45.667,31.152,74.924,31.284h0.494c29.423,0,54.562-10.428,75.418-31.284
	C221.734,180.023,232.146,154.9,232.146,125.445 M249,125c0,34.233-12.108,63.441-36.325,87.625C188.425,236.875,159.2,249,125,249
	c-34.233,0-63.475-12.125-87.724-36.375c-14.464-14.464-24.596-30.708-30.395-48.73C2.96,151.737,1,138.772,1,125
	c0-34.266,12.092-63.507,36.276-87.724C61.525,13.092,90.767,1,125,1c34.2,0,63.425,12.092,87.675,36.276
	c14.727,14.729,24.974,31.317,30.74,49.768C247.138,98.905,249,111.558,249,125"/>
</svg>
