<?xml version="1.0" encoding="utf-8"?>
<!-- Generator: Adobe Illustrator 16.0.0, SVG Export Plug-In . SVG Version: 6.00 Build 0)  -->
<!DOCTYPE svg PUBLIC "-//W3C//DTD SVG 1.1//EN" "http://www.w3.org/Graphics/SVG/1.1/DTD/svg11.dtd">
<svg version="1.1" id="Layer_1" xmlns="http://www.w3.org/2000/svg" xmlns:xlink="http://www.w3.org/1999/xlink" x="0px" y="0px"
	 width="250px" height="250px" viewBox="0 0 250 250" enable-background="new 0 0 250 250" xml:space="preserve">
<g>
	
		<radialGradient id="SVGID_1_" cx="-472.9702" cy="-540.1914" r="809.733" gradientTransform="matrix(0.2215 0 0 -0.2215 339.4565 -30.2095)" gradientUnits="userSpaceOnUse">
		<stop  offset="0.1176" style="stop-color:#FFFFFF;stop-opacity:0"/>
		<stop  offset="1" style="stop-color:#FFFFFF"/>
	</radialGradient>
	<path fill="url(#SVGID_1_)" d="M125.494,18.792H125c-29.258,0.132-54.233,10.543-74.923,31.235
		C29.252,70.85,18.841,95.99,18.841,125.445c0,11.664,1.631,22.652,4.893,32.964c4.975,15.717,13.756,29.851,26.343,42.404
		c20.69,20.725,45.665,31.152,74.923,31.283V249c-34.233,0-63.475-12.125-87.724-36.374c-14.464-14.465-24.596-30.709-30.395-48.731
		C2.96,151.737,1,138.772,1,125c0-34.266,12.092-63.507,36.276-87.724C61.525,13.092,90.767,1,125,1
		c34.199,0,63.424,12.092,87.675,36.276c14.728,14.728,24.975,31.317,30.74,49.768l-16.211,5.24
		c-5.008-15.651-13.771-29.736-26.292-42.256C180.057,29.203,154.917,18.792,125.494,18.792"/>
</g>
</svg>
